<?xml version="1.0" encoding="utf-8"?>
<!-- Generator: Adobe Illustrator 23.0.2, SVG Export Plug-In . SVG Version: 6.00 Build 0)  -->
<svg version="1.1" id="Calque_1" xmlns="http://www.w3.org/2000/svg" xmlns:xlink="http://www.w3.org/1999/xlink" x="0px" y="0px"
	 viewBox="0 0 387.1 58.5" style="enable-background:new 0 0 387.1 58.5;" xml:space="preserve">
<style type="text/css">
	.st0{fill:#FFFFFF;}
	.st1{fill:none;stroke:#FFFFFF;stroke-width:0.868;stroke-miterlimit:10;}
</style>
<g>
	<path class="st0" d="M37.8,31.8c0.2-1.4,0.7-2.6,1.4-3.5c1.1-1.3,2.8-2,4.7-2c2.3,0,3.7,1.1,4.3,1.8c0.8,0.9,1.3,2.1,1.5,3.6
		C49.8,31.8,37.8,31.8,37.8,31.8z M44,22.6c-3.2,0-5.9,1.1-7.8,3.1c-1.8,2-2.8,4.7-2.8,7.7c0,3.2,1,5.9,2.8,7.9
		c2,2.3,5,3.5,8.5,3.5c2.4,0,4.8-0.6,6.7-1.5c1.2-0.7,1.9-1.2,1.9-2.2c0-1-0.8-1.8-1.8-1.8c-0.5,0-1,0.3-1.5,0.6
		c-0.2,0.1-0.4,0.2-0.6,0.3c-1.3,0.7-2.9,1-4.7,1c-2.2,0-4-0.8-5.3-2.3c-0.8-1-1.3-2.2-1.6-3.7h14c1.3,0,2.3-1,2.3-2.5
		c0-2.8-0.9-5.2-2.6-7C49.7,23.7,47.1,22.6,44,22.6"/>
	<path class="st0" d="M104.6,41.2h-2.4c-2.8,0-5.1-0.8-6.5-2.2c-1.1-1.2-1.7-2.7-1.7-4.7c0-1.8,0.4-3.4,1.3-4.6
		c1.2-1.8,3.1-2.7,5.4-2.7c1.6,0,2.7,0.2,3.9,0.7L104.6,41.2L104.6,41.2z M107,12.7c-1.3-0.1-2.4,0.9-2.4,2.1v8.8
		c-1.2-0.4-2.5-0.6-4.1-0.6c-3.7,0-6.8,1.5-8.7,4.1c-1.4,1.9-2.2,4.4-2.2,7.1c0,3,0.9,5.5,2.8,7.3c2.2,2.1,5.4,3.3,9.5,3.3h4.7
		c1.4,0,2.4-0.9,2.4-2.3V14.9C109,13.8,108.1,12.8,107,12.7"/>
	<path class="st0" d="M117.7,31.8c0.2-1.4,0.7-2.6,1.4-3.5c1.1-1.3,2.8-2,4.7-2c2.3,0,3.7,1.1,4.3,1.8c0.8,0.9,1.3,2.1,1.5,3.6
		C129.7,31.8,117.7,31.8,117.7,31.8z M123.8,22.6c-3.2,0-5.9,1.1-7.8,3.1c-1.8,2-2.8,4.7-2.8,7.7c0,3.2,1,5.9,2.8,7.9
		c2,2.3,5,3.5,8.4,3.5c2.4,0,4.8-0.6,6.7-1.5c1.2-0.7,1.9-1.2,1.9-2.2c0-1-0.8-1.8-1.8-1.8c-0.5,0-1,0.3-1.5,0.6
		c-0.2,0.1-0.4,0.2-0.6,0.3c-1.3,0.7-2.9,1-4.7,1c-2.2,0-4-0.8-5.3-2.3c-0.8-1-1.3-2.2-1.6-3.7h14c1.3,0,2.3-1,2.3-2.5
		c0-2.8-0.9-5.2-2.6-7C129.5,23.7,126.9,22.6,123.8,22.6"/>
	<path class="st0" d="M149.9,40.1c-1.5,0.7-3.1,1.1-4.5,1.1c-2.1,0-4.6-0.8-4.6-3.1c0-1.3,1-2.3,3.1-2.8c1.8-0.5,4-0.7,6.1-0.8
		L149.9,40.1L149.9,40.1z M146.1,22.6c-2.2,0-4.2,0.4-5.9,1.1c-1.2,0.5-2.5,1.2-2.5,2.4c0,1,0.8,1.8,1.8,1.8c0.4,0,0.8-0.2,1.3-0.4
		c0.3-0.1,0.7-0.3,1.1-0.5c1.1-0.4,2.2-0.7,3.9-0.7c1.5,0,2.6,0.4,3.3,1.1c0.7,0.8,0.9,1.7,0.9,3.5v0.2c-2.9,0.2-6.2,0.5-8.8,1.5
		c-3,1.2-4.5,3-4.5,5.8c0,4.5,4,6.5,7.8,6.5c2.1,0,3.8-0.4,5.6-1.2c0.3,0.7,1.1,1.2,2,1.2c1.2,0,2.2-1,2.2-2.1V30.9
		c0-2.5-0.6-4.4-1.8-5.9C151.1,23.4,148.9,22.6,146.1,22.6"/>
	<path class="st0" d="M161.9,12.7c-1.2,0-2.2,0.9-2.2,2.1v28.1c0,1.1,1,2,2.2,2c1.2,0,2.2-0.9,2.2-2V14.8
		C164.1,13.6,163.1,12.7,161.9,12.7"/>
	<path class="st0" d="M62.7,35.3V26H68c1.5,0,2.5,0.3,3.4,1c1.2,0.8,1.7,2,1.7,3.7c0,1.6-0.7,3-1.9,3.8c-0.8,0.6-2,0.8-3.7,0.8
		L62.7,35.3L62.7,35.3z M96,46.2c-0.5-0.7-1.4-0.9-2.2-0.5c-2.6,1.5-7.4,3.4-13.1,2c-6.1-1.5-9.8-5.9-11.7-9.1
		c1.5-0.1,3.3-0.4,4.8-1.5c2-1.4,3.1-3.8,3.1-6.5c0-2.6-1-4.8-2.9-6.3l0,0c-1.5-1.2-3.3-1.7-5.6-1.7h-7.9c-0.1,0-0.1,0-0.2,0
		c-1.1,0.1-2,1-2,2.1v18c0,1.1,1,2.1,2.2,2.1c1.2,0,2.2-1,2.2-2.1v-4.1h2.5C67,42.2,71.6,49,79.9,51c1.2,0.3,2.3,0.5,3.4,0.5
		c5.3,0.3,9.6-1.5,12.1-2.9C96.3,48.1,96.6,47,96,46.2L96,46.2z"/>
	<path class="st0" d="M83.2,22.6c-1.2,0-2.2,0.9-2.2,2.1v18.1c0,1.1,1,2.1,2.2,2.1s2.2-1,2.2-2.1V24.7
		C85.4,23.6,84.4,22.6,83.2,22.6"/>
	<path class="st0" d="M82.5,18.1c0.6,0.3,1.2,0.3,1.7,0.1c0.1,0,0.1-0.1,0.2-0.1c0.5-0.2,0.9-0.7,1.1-1.3c0.2-0.7,0.2-1.4-0.2-2.2
		c-0.3-0.6-0.7-1.2-1.3-1.5c-0.6-0.4-1.2-0.5-1.8-0.2c-0.1,0.1-0.3,0.1-0.5,0.3l0,0c-0.4,0.3-0.7,0.8-0.8,1.4
		c-0.1,0.6-0.1,1.2,0.2,1.8C81.4,17.2,81.8,17.7,82.5,18.1"/>
	<path class="st0" d="M61.4,16c2,0.8,2.9-2.4,0.9-3.2c-17.6-7.2-37.2-6.4-54.9,0c-2,0.7-1.1,3.9,0.9,3.2c5.2-1.9,10.5-3.3,15.9-4.1
		v30.7c0,1.2,1,2.3,2.2,2.3s2.3-1,2.4-2.3V11.3C39.7,10.3,50.8,11.7,61.4,16"/>
</g>
</svg>
